PathFileType	4	(X/Y/Z)	C:/Users/beibeiliu/ov580/test_trc/User2\sequence.26_training_dense_left.trc
DataRate	CameraRate	NumFrames	NumMarkers	Units	OrigDataRate	OrigDataStartFrame	OrigNumFrames
120	120	11	19	mm	120	91	361
Frame#	Time	ThumbCMC			ThumbMCP			ThumbIP			ThumbTip			IndexMCP			IndexPIP			IndexTip			MiddleMCP			MiddlePIP			MiddleTip			RingMCP			RingPIP			RingTip			PinkyMCP			PinkyPIP			PinkyTip			BackHand1			BackHand2			BackHand3	
		X0	Y0	Z0	X1	Y1	Z1	X2	Y2	Z2	X3	Y3	Z3	X4	Y4	Z4	X5	Y5	Z5	X6	Y6	Z6	X7	Y7	Z7	X8	Y8	Z8	X9	Y9	Z9	X10	Y10	Z10	X11	Y11	Z11	X12	Y12	Z12	X13	Y13	Z13	X14	Y14	Z14	X15	Y15	Z15	X16	Y16	Z16	X17	Y17	Z17	X18	Y18	Z18	
90	0.75	-133.47	-43.299	108.089	-115.342	-46.2193	78.6509	-96.3339	-44.0086	44.5983	-99.3411	-41.4655	18.4875	-133.389	14.0276	45.9562	-118.541	10.6365	16.4011	-114.748	-20.297	-3.98376	-159.911	26.0435	45.2086	-150.796	44.2264	17.6468	-141.449	53.1306	-16.6761	-183.176	16.4723	42.0699	-180.027	35.5993	15.8613	-171.308	45.6475	-16.0035	-206.372	-2.25368	37.0284	-202.631	12.0482	17.6491	-200.645	25.1869	-3.93379	-194.339	-13.2937	83.474	-206.924	-25.7316	107.747	-165.579	-10.425	109.548	
91	0.758333	-135.092	-38.9958	105.454	-114.15	-43.1279	76.7191	-100.777	-42.2602	43.9344	-103.126	-41.0723	17.722	-134.187	16.4159	39.7851	-125.26	10.5647	11.959	-120.007	-17.5638	-6.14656	-164.422	26.9116	43.5484	-156.223	46.6454	11.026	-151.56	55.1241	-19.1088	-189.832	20.5367	36.4677	-189.857	33.2645	13.5841	-182.459	43.5356	-15.2328	-208.475	-7.21121	39.4233	-211.145	10.0258	14.5179	-211.527	25.7675	-6.88855	-198.929	-11.3386	81.9436	-207.541	-23.1401	108.527	-169.994	-9.46378	104.278	
92	0.766667	-138.534	-35.3434	103.03	-121.293	-39.4381	74.4449	-107.244	-36.0784	38.1856	-112.369	-37.2934	12.6992	-147.124	16.2622	37.79	-133.991	11.6802	5.83106	-129.525	-14.2789	-9.70044	-178.373	26.2665	36.5053	-172.296	42.5933	6.57252	-164.189	54.2743	-24.5868	-201.133	14.225	33.2089	-200.135	29.5426	7.7393	-193.324	40.437	-16.3192	-217.209	-10.4831	36.2149	-218.54	4.0084	13.331	-219.053	19.8801	-9.46716	-207.472	-15.6802	79.373	-210.155	-27.3091	111.328	-178.645	-11.1584	103.783	
93	0.775	-143.713	-29.5928	99.6673	-124.446	-31.3964	67.8586	-114.289	-33.2198	37.3628	-112.9	-34.9417	9.0458	-156.27	17.9692	34.0483	-144.604	12.785	2.27956	-133.977	-17.1075	-14.758	-187.418	25.305	29.0321	-185.795	38.3467	2.38167	-184.263	46.5029	-30.1136	-212.064	7.8789	26.8387	-212.452	19.1034	4.60174	-206.16	31.7274	-24.9903	-221.425	-17.5389	34.5323	-227.027	-5.26854	9.96089	-231.436	7.12191	-13.756	-210.421	-16.9044	78.4056	-211.898	-28.9297	107.559	-183.565	-7.4372	100.792	
94	0.783333	-150.977	-23.9235	97.5027	-125.837	-25.6272	66.8751	-116.563	-26.4286	30.8428	-120.016	-32.7911	7.77448	-166.128	15.417	24.0629	-157.778	6.47777	-4.44692	-142.839	-19.4567	-16.3484	-199.047	19.0765	23.6674	-198.62	31.0374	-6.44802	-200.803	35.9169	-39.3333	-220.622	-2.40458	24.6625	-222.53	8.07151	0.617623	-222.947	15.8507	-32.4384	-227.454	-28.8234	32.3131	-238.094	-23.8773	9.65684	-244.426	-9.8476	-14.2336	-214.573	-24.7786	76.4248	-218.646	-32.2939	106.693	-192.415	-8.93402	96.0115	
95	0.791667	-155.467	-17.747	93.2174	-131.356	-20.2858	65.4902	-124.06	-22.3049	29.1666	-120.495	-30.7579	4.25484	-178.739	10.4597	15.7417	-166.492	-2.21327	-11.0348	-147.99	-30.4512	-18.6332	-214.67	7.42722	17.7321	-214.615	17.278	-9.5619	-215.957	18.789	-45.4622	-230.043	-15.4282	21.006	-234.132	-8.38086	-2.76734	-233.289	-3.04846	-33.2366	-233.389	-44.5802	33.6778	-244.201	-36.0093	3.57409	-249.016	-26.3377	-16.9728	-223.294	-30.4934	71.8919	-219.359	-37.3198	105.093	-196.737	-5.1875	92.4855	
96	0.8	-159.705	-12.6724	86.9716	-139.357	-15.7612	57.9327	-124.605	-18.9444	22.026	-128.594	-31.4615	-0.510895	-188.225	4.00143	12.2333	-170.664	-6.41234	-15.4712	-150.536	-35.0321	-20.6433	-222.253	-5.13215	15.3204	-227.613	1.30517	-19.173	-227.277	1.81836	-49.2214	-234.159	-23.6404	19.0414	-241.596	-19.9037	-8.82358	-241.483	-19.593	-38.2241	-235.61	-51.4667	29.6561	-245.511	-49.7721	3.38771	-254.924	-48.1308	-18.1283	-225.917	-37.8551	70.3494	-225.875	-40.6531	101.982	-201.169	-8.49359	89.8343	
97	0.808333	-166.008	-9.96513	83.1014	-143.229	-11.584	54.3785	-132.49	-18.7201	22.7472	-133.241	-32.3054	-5.911	-197.88	-1.8693	8.99748	-177.342	-15.734	-20.2322	-151.847	-38.2743	-21.1855	-230.568	-17.8276	10.4415	-234.75	-13.1147	-25.6759	-233.19	-15.4434	-56.2581	-238.221	-36.4926	16.5154	-247.072	-38.4185	-10.9755	-247.034	-37.9675	-41.4821	-235.631	-63.2675	30.1698	-246.772	-63.5651	2.91945	-256.97	-65.297	-19.6717	-227.097	-40.9792	69.08	-224.079	-46.7274	103.965	-210.306	-12.6845	82.1803	
98	0.816667	-171.537	-3.7392	79.0344	-146.682	-5.62254	50.1242	-136.932	-15.2989	14.3569	-138.199	-32.7541	-5.17033	-206.21	-12.983	4.30115	-183.748	-24.3219	-22.0877	-156.792	-40.6719	-22.2401	-235.283	-28.3945	6.47013	-239.107	-27.9727	-25.1909	-236.686	-35.3855	-61.789	-240.547	-49.9281	14.3335	-247.851	-53.6652	-11.5415	-246.654	-53.0948	-41.745	-233.105	-73.9458	30.0012	-244.018	-78.2358	3.27897	-255.25	-83.6876	-20.1869	-228.529	-49.6907	66.9066	-225.271	-51.1384	102.517	-213.69	-14.493	82.6437	
99	0.825	-182.046	-5.62809	71.9139	-157.497	-4.34112	43.5847	-142.329	-11.638	13.6062	-139.181	-30.7163	-7.25206	-211.939	-22.5151	-1.44367	-192.105	-30.5782	-23.4513	-158.77	-43.4903	-21.8551	-239.061	-40.8606	5.16233	-241.637	-43.3912	-31.2343	-237.053	-51.2182	-64.3985	-242.027	-63.2416	12.0744	-247.188	-65.2147	-14.3085	-245.087	-67.6163	-44.562	-229.12	-81.7505	32.3673	-239.63	-91.6771	6.9218	-246.875	-97.9781	-16.3547	-231.1	-58.1881	68.5273	-227.176	-53.6846	98.8608	-223.875	-20.9853	80.5624	
100	0.833333	-189.309	-5.04555	73.605	-165.379	-0.829647	39.9056	-150.535	-9.48797	11.2583	-143.538	-27.3786	-10.8371	-218.047	-29.1368	-1.71494	-196.835	-37.3372	-23.7743	-160.723	-46.2591	-22.2241	-242.87	-52.952	-0.354373	-243.677	-57.7197	-30.5277	-236.008	-63.8266	-64.4393	-240.116	-72.9749	15.1957	-245.337	-79.096	-12.8881	-243.254	-86.3975	-45.373	-226.622	-94.7682	32.8323	-234.547	-101.736	7.74779	-241.338	-111.563	-14.7265	-230.743	-65.1163	67.32	-226.319	-56.295	101.551	-227.45	-24.6692	75.8092	
